<?xml version="1.0" encoding="utf-8"?>
<!-- Generator: Adobe Illustrator 16.0.0, SVG Export Plug-In . SVG Version: 6.00 Build 0)  -->
<!DOCTYPE svg PUBLIC "-//W3C//DTD SVG 1.1//EN" "http://www.w3.org/Graphics/SVG/1.1/DTD/svg11.dtd">
<svg version="1.1" id="Layer_2" xmlns="http://www.w3.org/2000/svg" xmlns:xlink="http://www.w3.org/1999/xlink" x="0px" y="0px"
	 width="200px" height="200px" viewBox="148.5 0 200 200" enable-background="new 148.5 0 200 200" xml:space="preserve">
<path fill="#C4C4C4" d="M321.5,81.5c-8.857,0-16.252,6.229-18.065,14.544C303.29,96.028,303.148,96,303,96h-35.586
	c-0.498-2.371-1.438-4.576-2.718-6.539l25.169-25.171c0.105-0.105,0.186-0.225,0.276-0.338c7.161,4.597,16.796,3.773,23.059-2.489
	c7.226-7.226,7.224-18.938,0-26.163c-7.226-7.225-18.938-7.225-26.163,0c-6.264,6.264-7.087,15.896-2.49,23.058
	c-0.113,0.091-0.232,0.171-0.338,0.276L259.04,83.805c-1.964-1.281-4.169-2.22-6.54-2.719V45.5c0-0.149-0.028-0.29-0.044-0.435
	C260.771,43.252,267,35.857,267,27c0-10.217-8.283-18.5-18.5-18.5C238.283,8.5,230,16.783,230,27
	c0,8.857,6.229,16.252,14.544,18.065c-0.016,0.145-0.044,0.286-0.044,0.435v35.586c-2.371,0.499-4.576,1.438-6.539,2.718
	l-25.17-25.171c-0.105-0.105-0.225-0.185-0.338-0.276c4.597-7.161,3.773-16.793-2.49-23.057c-7.224-7.225-18.938-7.225-26.163,0
	c-7.224,7.225-7.225,18.938,0,26.162c6.264,6.264,15.897,7.087,23.059,2.49c0.091,0.113,0.171,0.233,0.276,0.338l25.17,25.171
	c-1.28,1.963-2.219,4.169-2.718,6.539H194c-0.149,0-0.29,0.028-0.435,0.044C191.752,87.729,184.357,81.5,175.5,81.5
	c-10.217,0-18.5,8.283-18.5,18.5s8.283,18.5,18.5,18.5c8.857,0,16.252-6.229,18.065-14.544C193.71,103.972,193.851,104,194,104
	h35.586c0.499,2.37,1.438,4.575,2.718,6.539l-25.169,25.17c-0.105,0.105-0.185,0.225-0.276,0.338
	c-7.162-4.597-16.795-3.772-23.059,2.49c-7.225,7.225-7.225,18.938,0,26.163c7.224,7.225,18.938,7.225,26.163,0
	c6.263-6.264,7.087-15.897,2.49-23.059c0.113-0.091,0.233-0.171,0.338-0.276l25.169-25.169c1.963,1.28,4.169,2.22,6.54,2.718V154.5
	c0,0.148,0.028,0.29,0.044,0.435C236.229,156.748,230,164.143,230,173c0,10.217,8.283,18.5,18.5,18.5S267,183.217,267,173
	c0-8.857-6.229-16.252-14.544-18.065c0.016-0.145,0.044-0.286,0.044-0.435v-35.586c2.371-0.498,4.576-1.438,6.54-2.719l25.169,25.17
	c0.105,0.105,0.225,0.186,0.338,0.276c-4.597,7.161-3.773,16.795,2.49,23.059c7.225,7.225,18.939,7.225,26.163,0
	c7.225-7.225,7.224-18.939,0-26.163c-6.264-6.264-15.897-7.087-23.059-2.49c-0.091-0.113-0.171-0.232-0.276-0.338l-25.169-25.17
	c1.28-1.963,2.22-4.169,2.718-6.539H303c0.148,0,0.29-0.028,0.435-0.044c1.813,8.314,9.208,14.544,18.065,14.544
	c10.217,0,18.5-8.283,18.5-18.5C340,89.783,331.717,81.5,321.5,81.5z"/>
</svg>
