<?xml version="1.0" encoding="utf-8"?>
<!-- Generator: Adobe Illustrator 16.0.0, SVG Export Plug-In . SVG Version: 6.00 Build 0)  -->
<!DOCTYPE svg PUBLIC "-//W3C//DTD SVG 1.1//EN" "http://www.w3.org/Graphics/SVG/1.1/DTD/svg11.dtd">
<svg version="1.1" id="Layer_2" xmlns="http://www.w3.org/2000/svg" xmlns:xlink="http://www.w3.org/1999/xlink" x="0px" y="0px"
	 width="200px" height="200px" viewBox="148.5 0 200 200" enable-background="new 148.5 0 200 200" xml:space="preserve">
<g>
	<g>
		<path fill="#C4C4C4" d="M248.5,16.06c0,0-138.712,162.834-6.447,167.88v-0.502l-36.791-36.79c-2.518-2.517-2.518-6.599,0-9.116
			c2.518-2.518,6.599-2.518,9.117,0l27.674,27.675v-40.431L216.06,98.782c-2.518-2.518-2.518-6.599,0-9.117
			c2.518-2.517,6.599-2.517,9.117,0l16.876,16.877V56.995c0-3.56,2.887-6.447,6.447-6.447c3.561,0,6.446,2.887,6.446,6.447v49.548
			l17.683-17.684c2.516-2.517,6.601-2.517,9.116,0c2.519,2.518,2.519,6.6,0,9.117l-26.799,26.798v40.432l32.188-32.188
			c2.516-2.518,6.601-2.518,9.116,0c2.518,2.518,2.518,6.6,0,9.116l-41.304,41.303v0.502C387.212,178.894,248.5,16.06,248.5,16.06z"
			/>
	</g>
</g>
</svg>
