<?xml version="1.0" encoding="utf-8"?>
<!-- Generator: Adobe Illustrator 16.0.0, SVG Export Plug-In . SVG Version: 6.00 Build 0)  -->
<!DOCTYPE svg PUBLIC "-//W3C//DTD SVG 1.1//EN" "http://www.w3.org/Graphics/SVG/1.1/DTD/svg11.dtd">
<svg version="1.1" id="Layer_3" xmlns="http://www.w3.org/2000/svg" xmlns:xlink="http://www.w3.org/1999/xlink" x="0px" y="0px"
	 width="200px" height="200px" viewBox="148.5 0 200 200" enable-background="new 148.5 0 200 200" xml:space="preserve">
<g>
	<path fill="#C4C4C4" d="M324.216,126.257c-3.421-5.834-8.104-10.462-14.05-13.882c-5.947-3.419-12.341-5.129-19.178-5.129
		c-5.278,0-10.24,0.985-14.886,2.954c-4.646,1.972-8.696,4.684-12.153,8.14c-3.456,3.457-6.17,7.546-8.14,12.266
		c-1.971,4.721-2.955,9.645-2.955,14.773c0,6.84,1.709,13.232,5.13,19.178c3.418,5.947,8.046,10.631,13.882,14.05
		c5.833,3.418,12.209,5.129,19.122,5.129s13.324-1.711,19.233-5.129c5.91-3.419,10.573-8.084,13.994-13.994
		c3.418-5.909,5.129-12.32,5.129-19.233S327.634,132.093,324.216,126.257z M301.637,156.139c-2.938,2.863-6.487,4.293-10.648,4.293
		c-4.09,0-7.582-1.449-10.481-4.349c-2.898-2.899-4.349-6.392-4.349-10.481c0-4.161,1.43-7.711,4.293-10.648
		c2.861-2.935,6.374-4.404,10.537-4.404c4.237,0,7.805,1.45,10.704,4.349c2.898,2.899,4.349,6.468,4.349,10.704
		C306.041,149.766,304.571,153.277,301.637,156.139z"/>
	<path fill="#C4C4C4" d="M226.875,94.312c5.945-3.418,10.628-8.046,14.049-13.882c3.419-5.835,5.129-12.283,5.129-19.345
		c0-6.913-1.71-13.287-5.129-19.123c-3.42-5.835-8.104-10.462-14.049-13.882c-5.948-3.418-12.377-5.129-19.29-5.129
		c-5.278,0-10.202,0.967-14.773,2.899c-4.572,1.934-8.624,4.646-12.154,8.14c-3.532,3.494-6.282,7.601-8.251,12.321
		c-1.971,4.721-2.955,9.645-2.955,14.774c0,6.988,1.69,13.418,5.073,19.29c3.381,5.873,8.028,10.519,13.938,13.938
		c5.91,3.42,12.283,5.129,19.122,5.129C214.499,99.44,220.928,97.731,226.875,94.312z M192.756,61.307
		c0-4.162,1.43-7.711,4.293-10.648c2.861-2.936,6.374-4.404,10.537-4.404c4.162,0,7.729,1.449,10.704,4.349
		c2.973,2.899,4.46,6.467,4.46,10.704c0,4.164-1.505,7.676-4.516,10.537c-3.01,2.862-6.561,4.292-10.648,4.292
		c-4.089,0-7.582-1.449-10.481-4.348S192.756,65.396,192.756,61.307z"/>
	<polygon fill="#C4C4C4" points="313.546,61.196 313.78,12.94 268.418,29.935 282.603,39.761 181.35,181.5 207.596,181.5 
		299.363,51.371 	"/>
</g>
</svg>
